<svg id="Layer_7" data-name="Layer 7" xmlns="http://www.w3.org/2000/svg" xmlns:xlink="http://www.w3.org/1999/xlink" viewBox="0 0 889.29 889.29"><defs><style>.cls-1{fill:#388bba;}.cls-2{clip-path:url(#clip-path);}.cls-15,.cls-3{fill:#0071bc;}.cls-4{fill:#dfb28b;}.cls-5{fill:#593e2d;}.cls-11,.cls-16,.cls-6{fill:none;}.cls-6{stroke:#4c3427;stroke-linejoin:bevel;stroke-width:11.34px;}.cls-7{fill:#b08874;}.cls-8{fill:#00527f;}.cls-9{fill:#cea28b;}.cls-10{fill:#fff;}.cls-11{stroke:#b08874;}.cls-11,.cls-16{stroke-miterlimit:10;stroke-width:2.83px;}.cls-12{fill:#3f2b20;}.cls-13{fill:#cc2e41;}.cls-14{fill:#e24466;}.cls-15{opacity:0.1;}.cls-16{stroke:#4c3327;}</style><clipPath id="clip-path"><circle class="cls-1" cx="444.64" cy="444.64" r="444.64"/></clipPath></defs><circle class="cls-1" cx="444.64" cy="444.64" r="444.64"/><g class="cls-2"><path class="cls-3" d="M752.37,689.77c-15.42-91.6-85.82-132.1-136-145.6s-97.29-49.72-97.29-49.72H361.37s-47.14,36.22-97.28,49.72-120.54,54-136,145.6-16.39,365.47-16.39,365.47h657S767.8,781.38,752.37,689.77Z"/><path class="cls-4" d="M529.23,444.64H352.52s8.43,20.59,8.85,29.69,0,23.21,0,23.21V556.7h159V497.54s-.42-14.11,0-23.21S529.23,444.64,529.23,444.64Z"/><path class="cls-5" d="M361.4,502.17,440.29,975l79.86-472.82a85,85,0,0,1-158.75,0Z"/><path class="cls-6" d="M356.57,500.46a92.24,92.24,0,0,0,168.11,0"/><path class="cls-7" d="M352.52,444.64c11.53,38.22,46,64.93,85.12,66.29,41.39,1.44,79.32-25.79,91.59-66.29l-87.36-6.33Z"/><polygon class="cls-8" points="361.38 494.45 313.16 524.47 272.24 606.25 325.64 628.02 265.05 687.25 440.3 974.99 361.38 494.45"/><polygon class="cls-8" points="520.38 494.45 567.43 524.47 608.35 606.25 554.94 628.02 615.54 687.25 440.3 974.99 520.38 494.45"/><path class="cls-9" d="M563.34,306s8.68-1.29,9,10-2.57,28.93-1.93,33.75-1,13.29-1,18.22,2.88,14.57-6.11,19.71S551,393.46,551,393.46Z"/><path class="cls-9" d="M319,306s-8.68-1.29-9,10,2.57,28.93,1.93,33.75,1,13.29,1,18.22S310,382.45,319,387.59s12.32,5.87,12.32,5.87Z"/><path class="cls-4" d="M545.66,231.1c-28.29-75.22-104.79-74.16-104.79-74.16s-76.5-1.06-104.78,74.16C317.6,280.26,320.66,328.81,322,364.17S347,444.52,376,472.81s64.92,26.86,64.92,26.86,36,1.43,64.93-26.86,52.72-73.29,54-108.64S564.15,280.26,545.66,231.1Z"/><path class="cls-10" d="M392.34,321.18l-10.39.67s-19.83-3.49-24.16-5.9,1.44-6.51,1.44-6.51,6.59-4.5,9.64-4.58,7.72-.72,7.72-.72h8.52l6.59,1.77,8.35,5.38,4.26,5.79-.56,2.49Z"/><path class="cls-7" d="M406.31,327.38s-7,3.07-20.58,4.57-18.49.95-18.49.95,7.27,2.42,18.49,1.62C400.91,333.45,406.31,327.38,406.31,327.38Z"/><path class="cls-7" d="M419,351.63c-1.76,3.26-3.67,6.21-5.28,9.14a22.8,22.8,0,0,0-1.9,4.21,19.29,19.29,0,0,0-.92,4.38,12.76,12.76,0,0,0,.44,4.15c.1.36.2.73.33,1.1s.23.59.33.91.31.55.44.85l.57.83c1.74,2.17,4.82,3.82,8.24,5.13a11.68,11.68,0,0,1-2.76.5,13.73,13.73,0,0,1-2.86-.09,12.2,12.2,0,0,1-5.65-2.27c-.42-.35-.83-.72-1.24-1.1s-.73-.86-1.05-1.32-.61-1-.84-1.46-.42-.9-.6-1.37a15.56,15.56,0,0,1-.85-3,15.15,15.15,0,0,1-.15-3.23,17.89,17.89,0,0,1,4.88-10.8A28.27,28.27,0,0,1,419,351.63Z"/><path class="cls-11" d="M408,367.49s1,6.43,6.61,7.61,7.77,1,7.77,1h7.78a20.39,20.39,0,0,0,6,1.69l2.57.13"/><path class="cls-5" d="M414.31,291.2l-10.76-8.8L400,279.51l2.09,3.85a27.57,27.57,0,0,0-6.59-6.42l-4.34-3.06,2.89,4.34s-9.61-4.82-14.37-5.46l-4.75-.65,3.86,3.7s-8.2-2.25-10.61-1.93l-2.41.32,3.05,1.45s-11.09,3-14.78,6.71-4.34,6.27-4.34,6.27l4.82-3.37-1,2.69s7.27-2.85,11.76-3.16c3.31-.23,17.48,1.39,17.48,1.39l-1.89-1.73s6.27.81,8.52,2.09l2.25,1.29-1-3.38s9.16,3.54,11.41,5.31l2.25,1.76v-2.73Z"/><path class="cls-7" d="M411.14,312.08s-2.07-15.66-32.94-16.7c-23.95-.8-32.95,15.75-32.95,15.75s13.5-14.3,32.95-14S411.14,312.08,411.14,312.08Z"/><path class="cls-5" d="M383.34,318.81a8.74,8.74,0,0,0,7.58-13.11l-5.81-1.56H376.9a8.74,8.74,0,0,0,6.44,14.67Z"/><circle class="cls-12" cx="383.34" cy="310.47" r="4"/><path class="cls-7" d="M458.43,351.63a28.42,28.42,0,0,1,8.88,6.53,18,18,0,0,1,4.87,10.8,14.53,14.53,0,0,1-.15,3.23,15.56,15.56,0,0,1-.85,3c-.18.47-.39.93-.6,1.37s-.55,1-.84,1.46-.7.89-1.05,1.32-.82.75-1.24,1.1a12.2,12.2,0,0,1-5.65,2.27,13.71,13.71,0,0,1-2.86.09,11.68,11.68,0,0,1-2.76-.5c3.42-1.31,6.51-3,8.24-5.13l.57-.83c.13-.3.31-.56.44-.85s.21-.58.33-.91.23-.74.33-1.1a12.49,12.49,0,0,0,.44-4.15,19.8,19.8,0,0,0-.91-4.38,23.57,23.57,0,0,0-1.91-4.21C462.1,357.84,460.19,354.89,458.43,351.63Z"/><path class="cls-11" d="M469.39,367.49s-1,6.43-6.61,7.61-7.77,1-7.77,1h-7.78a20.39,20.39,0,0,1-6,1.69l-2.57.13"/><path class="cls-5" d="M430.2,376.06s-1.82-2.89-6.54-3.21a17.44,17.44,0,0,0-9,2.25,60.13,60.13,0,0,0,7.77,2.57C425.16,378.2,430.2,376.06,430.2,376.06Z"/><path class="cls-5" d="M447.23,376.06s1.82-2.89,6.54-3.21a17.44,17.44,0,0,1,9,2.25,60.13,60.13,0,0,1-7.77,2.57C452.27,378.2,447.23,376.06,447.23,376.06Z"/><path class="cls-5" d="M408.52,319.49a28.65,28.65,0,0,0-21.18-16.72c-16.29-3.21-26.22,4.34-29.07,6.43-2.34,1.72-6.27,5.15-6.27,5.15s9.8,6.48,18.72,7.31a87.38,87.38,0,0,0,11.23.19s-5.25-.49-15.28-4a36.42,36.42,0,0,1-8.42-4s7.54-5.5,14.7-7.44c10.28-2.79,15.32-.71,19.25.8,7.69,2.95,12.11,10.88,12.11,10.88s-1.85.71-4.26,1.39c-1.67.47-7.71,1.69-7.71,1.69a74.54,74.54,0,0,0,10.18-.62A59.11,59.11,0,0,0,408.52,319.49Z"/><path class="cls-13" d="M448.77,405.75c-5-.2-9,3.47-9.2,3.64-.18-.17-4.17-3.84-9.19-3.64S398,424.05,398,424.05s15.23,12.11,20.78,14.84c7,3.43,34.56,3.43,41.54,0,5.56-2.73,20.79-14.84,20.79-14.84S453.91,406,448.77,405.75Z"/><path class="cls-5" d="M404.38,419.91s15.12.19,21.23.67a120.91,120.91,0,0,0,14,0,117.44,117.44,0,0,0,13.78,0c6.11-.48,21.23-.67,21.23-.67l4.5,2.79s-33.9-1-39.53-1c-9.8,0-38.77.54-38.77.54"/><path class="cls-14" d="M447.54,409.23a10.74,10.74,0,0,0-8,3.56,10.7,10.7,0,0,0-8-3.56c-3.17,0-16.54,8.41-16.54,8.41s14.09,1.05,16.87,1,7.63-.24,7.63-.24,4.84.19,7.63.24,16.87-1,16.87-1S450.71,409.23,447.54,409.23Z"/><path class="cls-14" d="M407.05,425.24s21.54-1.07,32.88-1.07,32.62,1.07,32.62,1.07-11,13.11-32.75,13.11S407.05,425.24,407.05,425.24Z"/><circle class="cls-10" cx="387.54" cy="309.03" r="1.45"/><path class="cls-10" d="M483.16,321.18l10.39.67s19.82-3.49,24.16-5.9-1.45-6.51-1.45-6.51-6.59-4.5-9.64-4.58-7.71-.72-7.71-.72h-8.52l-6.59,1.77-8.36,5.38-4.26,5.79.57,2.49Z"/><path class="cls-7" d="M469.18,327.38s7,3.07,20.58,4.57,18.49.95,18.49.95-7.27,2.42-18.49,1.62C474.58,333.45,469.18,327.38,469.18,327.38Z"/><path class="cls-5" d="M461.18,291.2,472,282.4l3.54-2.89-2.09,3.85a27.57,27.57,0,0,1,6.59-6.42l4.33-3.06-2.89,4.34s9.62-4.82,14.37-5.46l4.76-.65-3.86,3.7s8.2-2.25,10.61-1.93l2.41.32-3.06,1.45s11.09,3,14.79,6.71,4.34,6.27,4.34,6.27L521,285.26l1,2.69s-7.27-2.85-11.77-3.16c-3.3-.23-17.48,1.39-17.48,1.39l1.89-1.73s-6.27.81-8.52,2.09l-2.25,1.29,1-3.38s-9.16,3.54-11.41,5.31l-2.25,1.76v-2.73Z"/><path class="cls-7" d="M464.35,312.08s2.08-15.66,32.95-16.7c23.95-.8,32.95,15.75,32.95,15.75s-13.5-14.3-32.95-14S464.35,312.08,464.35,312.08Z"/><path class="cls-5" d="M492.16,318.81a8.76,8.76,0,0,1-7.59-13.11l5.82-1.56h8.2a8.74,8.74,0,0,1-6.43,14.67Z"/><circle class="cls-12" cx="492.16" cy="310.47" r="4"/><path class="cls-5" d="M467,319.49a28.63,28.63,0,0,1,21.18-16.72c16.28-3.21,26.22,4.34,29.07,6.43,2.33,1.72,6.27,5.15,6.27,5.15s-9.81,6.48-18.73,7.31a87.22,87.22,0,0,1-11.22.19s5.25-.49,15.28-4a36.42,36.42,0,0,0,8.42-4s-7.54-5.5-14.7-7.44c-10.29-2.79-15.32-.71-19.26.8-7.69,2.95-12.11,10.88-12.11,10.88s1.85.71,4.26,1.39c1.68.47,7.72,1.69,7.72,1.69a74.54,74.54,0,0,1-10.18-.62A58.39,58.39,0,0,1,467,319.49Z"/><circle class="cls-10" cx="487.96" cy="309.03" r="1.45"/><path class="cls-5" d="M321.93,325.92s-20.32-63.21-14.77-109c7.71-63.64,38.09-69.43,38.09-69.43S335.45,116,378.2,98C413,83.36,486.09,64,544.37,134.67c62.27,75.54,15.45,191.25,15.45,191.25s5.5-68-25-96.32S495.59,207.51,430,207.51c-43.17,0-54.37-28.17-54.37-28.17s-22.08,25.26-30.33,39.11C316.26,267.16,321.93,325.92,321.93,325.92Z"/><polygon class="cls-15" points="371.86 354.71 383.21 353.86 402.71 347 414.71 336.71 424.14 319.14 425.43 298.57 397.36 289.79 365.43 288.71 338 291.71 331.79 306.29 330.5 326.43 335.64 339.71 345.29 347.86 360.29 353.43 371.86 354.71"/><polygon class="cls-15" points="507.14 354.71 495.78 353.86 476.28 347 464.28 336.71 454.86 319.14 453.57 298.57 481.64 289.79 513.57 288.71 541 291.71 547.21 306.29 548.5 326.43 543.36 339.71 533.71 347.86 518.71 353.43 507.14 354.71"/><path class="cls-16" d="M345.25,147.52a66.61,66.61,0,0,1,30.33,31.82"/><path class="cls-5" d="M374.17,286.6a187.61,187.61,0,0,1,41.27,4.87,110.66,110.66,0,0,0,48.69,0c23.57-5.08,47.51-5.39,71.55-2.26,7.46,1,15,1.55,22.44,2.58a4.44,4.44,0,0,1,3,2.65c.53,2.16.24,4.46.38,6.7s0,4-3.44,5.19c-2.07.74-3.61,3.59-4.26,5.72-1.87,6.14-3,12.44-4.73,18.6-4.37,15.23-13.64,22.76-32.45,24.32A133.59,133.59,0,0,1,487,353.61a34.2,34.2,0,0,1-24.24-15c-4.79-7.28-8.58-15-12.41-22.7-2-3.93-4.12-7.23-9.92-7.53s-8.91,2.66-11,6.48c-3.11,5.65-5.54,11.57-8.92,17.1-13.58,22.2-48.27,30.56-74.53,18.14-7.45-3.52-12.53-8.62-14.56-15.49-2.11-7.12-3.91-14.29-5.66-21.48-.83-3.41-1.78-6.58-6.29-8-.73-.23-1.73-1-1.74-1.46a83.57,83.57,0,0,1,.28-11.19c.08-.75,2.1-1.84,3.32-1.94C338.93,289.11,356.55,287.87,374.17,286.6Zm-1.58,3.91c-4.06.2-8.9.33-13.71.68-14.54,1.07-22.2,6.22-24.6,16.75a43.7,43.7,0,0,0,.87,23.32c2.57,8,7.51,15,17.29,18.05,18.09,5.61,35.75,4.63,51.32-5.51,12.22-8,16.72-19.39,18.57-31.71.93-6.13-2-10.69-8-14a48.51,48.51,0,0,0-8-3.37C395.71,291.26,384.58,290.63,372.59,290.51Zm130.81.08-.07.55c-2.87,0-5.82-.35-8.6.07-8.55,1.29-17.34,2.17-25.47,4.54-9.62,2.8-13.05,8.58-11.87,16.79a59.5,59.5,0,0,0,2.26,10.24c4.83,14.58,14.81,25.32,33.74,28.37a93.62,93.62,0,0,0,20.7.93c16.16-1.06,25.27-6.45,28.28-17.71A82,82,0,0,0,545,310c-.41-10.17-6.48-15.31-18.68-17.22C518.76,291.59,511,291.29,503.4,290.59Z"/></g></svg>